<svg xmlns="http://www.w3.org/2000/svg" width="186.6" height="96.4" version="1.0"><defs/><path fill="#81B3D3" d="M187 0H0l80 90c8 8 19 8 26 0l81-90z"/><path fill="#23A9E1" d="M43 1l50 58 49-58z"/><path fill="#FFF" d="M122 17h-15c6-7 9-6 15 0zM81 23h27c-2-2-7-7-10-5 0 0-7-9-12-5-4 4-6 0-11 3s3 5 6 7z"/><path fill="#491213" d="M93 0H42v22l51 62 51-61V0H93zm0 57L46 2h94L93 57z"/><path fill="#491213" d="M93 57l28-32c-7 1-12 6-19 5-3-1-3-3-4-5l-4-2-5-1c-3 1-3 5-6 5-2-1-2-3-4-6-7-8-12-6-16 1l30 35z"/><path fill="#23A9E1" d="M89 71l4-7 4 7-4 6z"/><path fill="#491213" d="M125 20l-10-7c-5-4-13-8-22-8s-17 4-22 8l-10 7 9-8c5-4 14-8 23-8s17 4 23 8l9 8zM48 1h1v7h-1zM54 1h1v13h-1zM60 1h1v18h-1z"/><path fill="#491213" d="M67 1h1v13h-1zM73 1h1v9h-1zM80 1h1v6h-1zM87 1h1v4h-1z"/><path fill="#491213" d="M67 15L60 2h1l7 12zM74 10l-7-8h1l6 8zM80 7l-6-5V1l6 6zM87 5l-6-3V1l6 4zM93 5l-6-3V1l6 3zM136 1h1v6h-1zM131 1v13zM124 1h1v19h-1zM118 1h1v13h-1zM111 1h1v9h-1zM104 1h1v6h-1zM98 1h1v4h-1z"/><path fill="#491213" d="M119 14h-1l6-12h1zM112 10h-1l7-8h1zM106 7h-1l6-6 1 1zM99 5h-1l6-4 1 1zM93 5V4l5-3 1 1z"/><path fill="#FFF" d="M65 32l1 2v2l2-3-5-6-3 2h1l2 1-6 5h-1l1 1 2 3v-1l6-6zM60 25h1l-2-3h-1l-6 6h-2l3 3v1l1-1v-1l6-5zM51 24c-1 1-3 0-4-2l2-4c2-2 4-1 5 0v3 1l2-3-2-3-4-2c-2 0-5 3-5 5-1 2 0 3 1 4l2 3 4-1-1-1c0 1 0 0 0 0zM91 61l-5-6v1l-6 5-2 1 3 3v-1l4-3 1 1v2l2-3c1 0 0 0 0 0h-1l-1-1 1-1 2 2v3a1797 1797 0 002-3zM80 57c3-2 3-5 1-8-2-2-5-3-8-1-2 2-2 5 0 8 2 2 5 2 7 1zm0-5l-4 4c-2 0-3-1-2-3l4-4c2 0 3 1 2 3 0 1 0 0 0 0zM74 42h1l-2-3v1l-3 1 1-3h1l-3-3-1-1v2l-2 5-2 2h-1l2 3 1 1v-2l3-2 5-1z"/><path fill="#DC6243" d="M68 23c-4 0-3-4 0-5s8 2 10 3l-9 1c-1-3-1-2-1 1zM69 28c-2-2-2-6 2-4s-1 3-2 4zM77 35c-8 0-2-13 0-12 4 1 3 13 0 12zM83 31c0 3-2 3-2 0s3-3 5-4 3-5 7-3c1 1 3 0 4 2 0 0-5 10-2 10-5 0-3-6-1-10-2 1-5 7-3 8-1 2-5 4-7 2l-1-5zM88 41c-4 1-9-2-3-3 3 0 7 1 3 3 0 0-1 0 0 0zM92 41c-1-2 0-4 3-3 1 2-1 3-3 3zM89 45c-2-1-11 0-5-3 1 0 10 1 5 3zM92 45c0-1 0-3 1-2 3 1-1 3-1 2zM99 49c-1-2-3-2-4 0-2-4-8-3-11-3 1 4 15 5 15 3zM97 51h-9c2 1 6 2 2 3 2 2 4 2 6 0l-2-1c2 0 3-1 3-2z"/><g><path fill="#DC6243" d="M101 47c-5-3-4-5 0-8 3-1 8-5 10-3l-10 11z"/></g><g><path fill="#F49774" d="M97 40c-4-5 7-4 9-6 1 0 11-8 13-8-2 2-5 8-8 8-2 0-4 0-5 2l-9 4z"/></g><g><path fill="#F4B1A4" d="M99 34c-3 2-5-4-1-3h9c-2 2-5 4-8 3z"/></g><g><path fill="#491213" d="M92 1h1v4h-1z"/></g><g><path fill="#FFF" d="M111 52l1 2c-1 1-1 3-3 3l-3-3 3-1s1 0 0 0l-3-2v1l-1 2-1-3 2-1h2l-3-2-4 6h-1l1 1c1-1 7 5 7 5v1l6-6-3-4v1zM105 59c-2-1-5 1-6 2-1 0-2-1-1-2l2-1h2l-3-2-2 2-1 3 1 3h4l1-2c1 0 3 0 2 2l-2 2h-2-1l3 2 1-1 2-2c2-2 2-4 0-6zM105 59c1 1 0 0 0 0zM134 22zM142 20l-9-3-1-1-1 2-1 1v1c1-1 5 7 5 8-1 1-7-5-7-5l-1-1v1l-1 1h1l2 2h-3l-1-1-2 3-2 1h1l7 6v1l2-2v-1l-1 1-6-5a20070 20070 0 019 1v1l2-2v-1l2-2h-1l-2-2 1-1c1-1 4-2 4 0v1l3-4zm-7 2h-1 1l-1 1-2-3a744 744 0 013 2zM125 33c-3-2-6-1-8 1s-1 6 1 7c2 2 5 2 7 0 2-3 2-6 0-8zm0 7h-1c-1 1-3 0-4-1s-3-3-2-4h4c2 1 4 3 3 5 0-1 0-1 0 0zM125 33c1 1 0 0 0 0z"/><path fill="#FFF" d="M124 40h1a2 2 0 00-1 0zM118 42c-3-2-6-1-8 1l-3 4h1l6 5 1 1 4-6c1-2 1-4-1-5zm-1 7l-1 1-6-5 4-2c2 1 5 4 3 6z"/></g></svg>