<svg xmlns="http://www.w3.org/2000/svg" width="76.2" height="69"><defs/><g fill="#81b3d2"><path d="M72 46H4c-2 0-4 2-4 4v4c0 2 2 4 4 4h1v1c0 5 5 10 10 10h46c5 0 10-5 10-10v-1h1c2 0 4-2 4-4v-4c0-2-2-4-4-4zm-4 13c0 4-3 7-7 7H15c-4 0-7-3-7-7v-1h60v1zm5-5l-1 1H4l-1-1v-4l1-1h68l1 1v4zM16 38l6 4 5-4 6 4 5-4 6 4 5-4 6 4 5-4 5 4 7-5-2-2-5 3-5-4-5 4-6-4-5 4-6-4-5 4-6-4-5 4-6-4-5 4-5-3-2 2 7 5zM71 31v-3C70 12 56 0 38 0S6 12 5 28v3h66zM38 3c16 0 29 11 30 25H8C9 14 22 3 38 3z"/><circle cx="38.1" cy="15" r="2"/><circle cx="30.1" cy="10.1" r="2"/><circle cx="46.1" cy="10.1" r="2"/></g></svg>