<svg style="display:none">
  <symbol id="icon-house" viewBox="0 0 75 75">
    <g fill="#81b3d2">
      <path d="M30 65h16V41H30v24zm13-3H32V44h11v18z"/>
      <path d="M73 39l2-2-10-10V0H51v14L37 0 0 37l2 2 8-7v37H6v3h64v-3h-5V32l8 7zM54 3h8v22l-8-8V3zm8 66H13V29L37 4l25 25v40z"/>
      <path d="M30 27a8 8 0 1015 0 8 8 0 00-15 0zm8-5a5 5 0 110 10 5 5 0 010-10zM17 41h3v4h-3zM23 41h3v4h-3zM17 47h3v4h-3zM23 47h3v4h-3zM49 41h3v4h-3zM55 41h3v4h-3zM49 47h3v4h-3zM55 47h3v4h-3z"/>
    </g>
  </symbol>
  <symbol id="icon-burger" viewBox="0 0 75 75">
    <g fill="#81b3d2">
      <path d="M72 46H4c-2 0-4 2-4 4v4c0 2 2 4 4 4h1v1c0 5 5 10 10 10h46c5 0 10-5 10-10v-1h1c2 0 4-2 4-4v-4c0-2-2-4-4-4zm-4 13c0 4-3 7-7 7H15c-4 0-7-3-7-7v-1h60v1zm5-5l-1 1H4l-1-1v-4l1-1h68l1 1v4zM16 38l6 4 5-4 6 4 5-4 6 4 5-4 6 4 5-4 5 4 7-5-2-2-5 3-5-4-5 4-6-4-5 4-6-4-5 4-6-4-5 4-6-4-5 4-5-3-2 2 7 5zM71 31v-3C70 12 56 0 38 0S6 12 5 28v3h66zM38 3c16 0 29 11 30 25H8C9 14 22 3 38 3z"/>
      <circle cx="38.1" cy="15" r="2"/>
      <circle cx="30.1" cy="10.1" r="2"/>
      <circle cx="46.1" cy="10.1" r="2"/>
    </g>
  </symbol>
  <symbol id="icon-gift" viewBox="-2 2 75 72">
    <path fill="#81b3d2" d="M60 22H36c13-7 14-11 14-13-1-4-6-7-10-6-5 2-7 11-8 17-2-6-4-14-8-18l-6-2c-4 0-10 5-7 11 2 5 9 9 14 11H3c-2 0-3 2-3 3v11c0 2 1 3 3 3v36h57V39c2 0 3-1 3-3V25c0-1-1-3-3-3zM42 6c2 0 5 1 5 3 0 3-3 5-5 6l-7 4c1-3 2-12 7-13zM19 16c-2-2-6-5-6-8 0-4 6-6 9-4 3 4 5 11 7 17l-10-5zm6 56H6V39h19v33zm0-36H3V25h22v11zm10 36h-7V25h7v47zm22 0H38V39h19v33zm3-36H38V25h22v11z"/>
  </symbol>
</svg>
