<svg xmlns="http://www.w3.org/2000/svg" xmlns:xlink="http://www.w3.org/1999/xlink"><symbol id="icon-burger" viewBox="0 0 75 75"><g><path d="M72 46H4c-2 0-4 2-4 4v4c0 2 2 4 4 4h1v1c0 5 5 10 10 10h46c5 0 10-5 10-10v-1h1c2 0 4-2 4-4v-4c0-2-2-4-4-4zm-4 13c0 4-3 7-7 7H15c-4 0-7-3-7-7v-1h60v1zm5-5l-1 1H4l-1-1v-4l1-1h68l1 1v4zM16 38l6 4 5-4 6 4 5-4 6 4 5-4 6 4 5-4 5 4 7-5-2-2-5 3-5-4-5 4-6-4-5 4-6-4-5 4-6-4-5 4-6-4-5 4-5-3-2 2 7 5zM71 31v-3C70 12 56 0 38 0S6 12 5 28v3h66zM38 3c16 0 29 11 30 25H8C9 14 22 3 38 3z"/><circle cx="38.1" cy="15" r="2"/><circle cx="30.1" cy="10.1" r="2"/><circle cx="46.1" cy="10.1" r="2"/></g></symbol><symbol id="icon-facebook"><path d="M6 3h3V0H6C3 0 2 2 2 6H0v4h2v9h4v-9h3V6H6V3z"/></symbol><symbol id="icon-gift" viewBox="0 0 75 75"><path d="M60 22H36c13-7 14-11 14-13-1-4-6-7-10-6-5 2-7 11-8 17-2-6-4-14-8-18l-6-2c-4 0-10 5-7 11 2 5 9 9 14 11H3c-2 0-3 2-3 3v11c0 2 1 3 3 3v36h57V39c2 0 3-1 3-3V25c0-1-1-3-3-3zM42 6c2 0 5 1 5 3 0 3-3 5-5 6l-7 4c1-3 2-12 7-13zM19 16c-2-2-6-5-6-8 0-4 6-6 9-4 3 4 5 11 7 17l-10-5zm6 56H6V39h19v33zm0-36H3V25h22v11zm10 36h-7V25h7v47zm22 0H38V39h19v33zm3-36H38V25h22v11z"/></symbol><symbol id="icon-house" viewBox="0 0 75 75"><g><path d="M30 65h16V41H30v24zm13-3H32V44h11v18z"/><path d="M73 39l2-2-10-10V0H51v14L37 0 0 37l2 2 8-7v37H6v3h64v-3h-5V32l8 7zM54 3h8v22l-8-8V3zm8 66H13V29L37 4l25 25v40z"/><path d="M30 27a8 8 0 1015 0 8 8 0 00-15 0zm8-5a5 5 0 110 10 5 5 0 010-10zM17 41h3v4h-3zM23 41h3v4h-3zM17 47h3v4h-3zM23 47h3v4h-3zM49 41h3v4h-3zM55 41h3v4h-3zM49 47h3v4h-3zM55 47h3v4h-3z"/></g></symbol><symbol id="icon-like"><path d="M12 4v3l-1 2h9v2l-3 7H8V8l4-4M2 10v8-8M13 0L7 7 6 8v10l2 2h9l2-1 3-7V9l-2-2h-6l1-5-1-1-1-1zM4 8H0v12h4V8zm18 1z"/></symbol><symbol id="icon-mail"><path d="M8 10H7L0 6v7l1 1h14l1-1V6l-7 4H8zm7-8H1L0 3v1l8 4 8-4V3l-1-1z"/></symbol><symbol id="icon-map-marker" viewBox="0 0 27 27"><circle fill="#FFFFFF" cx="13.5" cy="13.5" r="13.5"/><circle fill="#81B3D3" cx="13.5" cy="13.5" r="8.361"/></symbol><symbol id="icon-phone"><g id="Page-1"><g id="Icons-Communication" transform="translate(-85.000000, -126.000000)"><g id="phone" transform="translate(85.000000, 126.000000)"><path id="Shape" d="M3.6,7.8C5,10.6,7.4,12.9,10.2,14.4l2.2-2.2c0.3-0.3,0.699-0.4,1-0.2c1.1,0.4,2.3,0.6,3.6,0.6 c0.6,0,1,0.4,1,1V17c0,0.6-0.4,1-1,1C7.6,18,0,10.4,0,1c0-0.6,0.4-1,1-1h3.5c0.6,0,1,0.4,1,1c0,1.2,0.2,2.4,0.6,3.6 c0.1,0.3,0,0.7-0.2,1L3.6,7.8L3.6,7.8z"/></g></g></g></symbol><symbol id="icon-twitter"><path d="M11 0l4 1h2l-1 1h2l-2 2c0 6-3 11-10 11H5l-5-2 5-1c-1-1-3-1-3-3h1C2 8 0 7 0 5l2 1C1 5 0 2 1 1l7 4c1-3 1-4 3-5z" clip-rule="evenodd"/></symbol><symbol id="icon-video-fullscreen" viewBox="0 0 20 20"><g><polygon points="0,0 0,3 0,6 3,6 3,3 6,3 6,0 3,0"/><polygon points="3,14 0,14 0,17 0,20 3,20 6,20 6,17 3,17"/><polygon points="17,0 14,0 14,3 17,3 17,6 20,6 20,3 20,0"/><polygon points="17,17 14,17 14,20 17,20 20,20 20,17 20,14 17,14"/></g></symbol><symbol id="icon-video-replay" viewBox="0 0 16 20"><path d="M8,4V0L3,5l5,5V6c3.315,0,6,2.686,6,6s-2.685,6-6,6s-6-2.686-6-6H0c0,4.42,3.58,8,8,8s8-3.58,8-8S12.42,4,8,4z"/></symbol><symbol id="icon-video-subtitles" viewBox="0 0 32 20"><path d="M29,0H3C1.35,0,0,1.35,0,3v14c0,1.65,1.35,3,3,3h26c1.65,0,3-1.35,3-3V3C32,1.35,30.65,0,29,0z M14.403,15.854c-0.545,0.108-1.104,0.164-1.678,0.164c-0.694,0-1.354-0.107-1.976-0.323c-0.623-0.214-1.172-0.562-1.646-1.041 s-0.852-1.103-1.133-1.868C7.69,12.02,7.551,11.091,7.551,10c0-1.134,0.157-2.085,0.471-2.851c0.315-0.768,0.723-1.384,1.224-1.854  c0.502-0.468,1.062-0.804,1.679-1.008c0.616-0.204,1.233-0.307,1.852-0.307c0.66,0,1.22,0.045,1.678,0.134  c0.457,0.087,0.835,0.192,1.133,0.313L15.14,6.347c-0.254-0.121-0.555-0.209-0.902-0.265C13.891,6.027,13.47,6,12.973,6 c-0.915,0-1.649,0.325-2.206,0.977c-0.558,0.651-0.836,1.663-0.836,3.031c0,0.598,0.067,1.142,0.199,1.632  c0.132,0.493,0.334,0.913,0.603,1.26c0.271,0.349,0.607,0.619,1.01,0.812c0.402,0.193,0.867,0.29,1.396,0.29  c0.496,0,0.915-0.049,1.257-0.148c0.342-0.099,0.639-0.227,0.893-0.38l0.463,1.841C15.398,15.564,14.949,15.745,14.403,15.854z   M23.101,15.854c-0.545,0.108-1.105,0.164-1.678,0.164c-0.694,0-1.354-0.107-1.976-0.323c-0.623-0.214-1.172-0.562-1.646-1.041  s-0.852-1.103-1.133-1.868c-0.281-0.767-0.421-1.695-0.421-2.786c0-1.134,0.157-2.085,0.471-2.851  c0.314-0.768,0.723-1.384,1.223-1.854c0.502-0.468,1.062-0.804,1.68-1.008c0.616-0.204,1.233-0.307,1.851-0.307 c0.661,0,1.221,0.045,1.678,0.134c0.458,0.087,0.836,0.192,1.133,0.313l-0.446,1.918c-0.253-0.121-0.554-0.209-0.901-0.265  C22.588,6.027,22.166,6,21.67,6c-0.915,0-1.649,0.325-2.206,0.977c-0.558,0.651-0.836,1.663-0.836,3.031  c0,0.598,0.067,1.142,0.199,1.632c0.132,0.493,0.334,0.913,0.603,1.26c0.271,0.349,0.606,0.619,1.009,0.812 c0.402,0.193,0.868,0.29,1.396,0.29c0.497,0,0.915-0.049,1.257-0.148c0.342-0.099,0.64-0.227,0.894-0.38l0.463,1.841  C24.096,15.564,23.646,15.745,23.101,15.854z"/></symbol><symbol id="icon-youtube"><path d="M17 0H3C1 0 0 1 0 3v8c0 2 1 3 3 3h14c2 0 3-1 3-3V3c0-2-1-3-3-3zM7 10V4l7 3-7 3z"/></symbol></svg>